PathFileType	4	(X/Y/Z)	N:\Shared_Data\Ergonomics\New Model Testing\10-03-21\Test Cal 01.trc																																																																																																																																																													
DataRate	CameraRate	NumFrames	NumMarkers	Units	OrigDataRate	OrigDataStartFrame	OrigNumFrames	
100	100	6	59	mm	100	1464	148
Frame#	Time	R_Knee_Med			R_Knee_Lat			R_Thigh_Upper			R_Thigh_Front			R_Thigh_Rear			L_Knee_Med			L_Knee_Lat			L_Thigh_Upper			L_Thigh_Front			L_Thigh_Rear			R_Ankle_Med			R_Ankle_Lat			R_Shank_Upper			R_Shank_Front			R_Shank_Rear			L_Ankle_Med			L_Ankle_Lat			L_Shank_Upper			L_Shank_Front			L_Shank_Rear			R_Heel			R_MTP1			R_MTP5			L_Heel			L_MTP1			L_MTP5			V_Sacral			R_Pelvis			R_ASIS			L_ASIS			L_Pelvis			Clavicle			Chest			R_Acromium			L_Acromium			R_Elbow			R_Arm_Parallel			R_Arm_Adjacent			L_Elbow			L_Arm_Parallel			L_Arm_Adjacent			R_Forearm2			R_Forearm1			R_Forearm_Base			L_Forearm2			L_Forearm1			L_Forearm_Base			R_Hand_Lower			R_Hand_Med			R_Hand_Lat			L_Hand_Lower			L_Hand_Med			L_Hand_Lat			LAJC			RAJC			LHJC			RHJC			LKJC			RKJC			
		X1	Y1	Z1	X2	Y2	Z2	X3	Y3	Z3	X4	Y4	Z4	X5	Y5	Z5	X6	Y6	Z6	X7	Y7	Z7	X8	Y8	Z8	X9	Y9	Z9	X10	Y10	Z10	X11	Y11	Z11	X12	Y12	Z12	X13	Y13	Z13	X14	Y14	Z14	X15	Y15	Z15	X16	Y16	Z16	X17	Y17	Z17	X18	Y18	Z18	X19	Y19	Z19	X20	Y20	Z20	X21	Y21	Z21	X22	Y22	Z22	X23	Y23	Z23	X24	Y24	Z24	X25	Y25	Z25	X26	Y26	Z26	X27	Y27	Z27	X28	Y28	Z28	X29	Y29	Z29	X30	Y30	Z30	X31	Y31	Z31	X32	Y32	Z32	X33	Y33	Z33	X34	Y34	Z34	X35	Y35	Z35	X36	Y36	Z36	X37	Y37	Z37	X38	Y38	Z38	X39	Y39	Z39	X40	Y40	Z40	X41	Y41	Z41	X42	Y42	Z42	X43	Y43	Z43	X44	Y44	Z44	X45	Y45	Z45	X46	Y46	Z46	X47	Y47	Z47	X48	Y48	Z48	X49	Y49	Z49	X50	Y50	Z50	X51	Y51	Z51	X52	Y52	Z52	X53	Y53	Z53	X54	Y54	Z54	X55	Y55	Z55	X56	Y56	Z56	X57	Y57	Z57	X58	Y58	Z58	X59	Y59	Z59	

1464	14.63	-27.666695	498.57025	12.233258	-39.147614	492.48364	146.75932	57.119991	705.1499	126.58005	47.550533	594.76575	71.097519	13.544907	592.6842	137.38626	-26.313011	501.65558	-64.229416	-77.941772	521.1532	-193.03279	25.005167	720.60608	-184.00415	30.26255	611.33264	-134.14789	-23.985897	606.0188	-193.32402	-67.726959	95.955315	51.036499	-109.44756	79.089394	145.85489	-6.5067801	359.20728	109.77853	-33.203033	243.66327	82.418785	-46.029278	246.50029	144.21207	-82.212982	103.58174	-123.09711	-137.33191	73.386169	-203.37262	-43.30043	344.80554	-183.79872	-53.626244	230.34157	-148.62796	-96.541443	246.27205	-206.96436	-158.2989	51.769726	85.068161	60.665291	46.379974	94.46666	17.926418	26.777544	169.76477	-168.10942	56.629417	-152.72897	24.83235	58.209866	-154.15166	-2.8864691	19.680561	-231.45547	-202.22606	994.60107	-18.29463	-19.07497	1025.5656	185.40747	37.848816	994.63977	121.98264	21.181236	985.69025	-143.18066	-52.753487	1022.2248	-214.18373	55.915314	1534.3097	-19.80455	61.028732	1341.4847	-19.537106	-40.781513	1492.6958	172.88924	-75.954308	1504.4388	-177.10266	-116.2533	1154.4893	278.82962	-111.72758	1229.5092	273.41296	-29.494179	1229.3955	252.65613	-158.46075	1159.5599	-290.73889	-154.11339	1235.6282	-292.01633	-72.926071	1247.0133	-284.9075	-13.450563	1137.5248	276.93561	7.5838027	1014.3644	292.77518	31.694889	919.46631	301.67499	-40.576096	1121.0881	-301.94626	-22.798864	1032.4792	-313.5929	1.6167766	947.39844	-318.97675	39.250591	865.11084	310.55457	77.902473	827.198	275.21591	16.818865	818.99164	326.74832	15.749062	885.86768	-321.4653	49.518452	843.60669	-303.21597	-7.6451874	838.27997	-341.12308	-109.772446	88.4839545	-163.234865	-88.5872595	87.5223545	98.4456945	-43.6983797	897.8595234	-98.14943638	-31.78237995	904.2577215	91.4213242	-52.1273915	511.40439	-128.631103	-33.4071545	495.526945	79.496289
1465	14.64	-27.714981	498.59726	12.274961	-39.32386	492.50345	146.76979	56.970745	705.16492	126.6244	47.419113	594.78308	71.146866	13.380828	592.71112	137.44415	-26.356403	501.67023	-64.237007	-78.010696	521.16504	-193.05052	24.917452	720.61145	-183.99338	30.176443	611.34705	-134.16281	-24.083015	606.02429	-193.32867	-67.708214	95.985832	51.079384	-109.42557	79.083595	145.86819	-6.6409383	359.23471	109.83519	-33.271809	243.70627	82.446014	-46.128338	246.51978	144.20891	-82.223381	103.5931	-123.11455	-137.34117	73.392708	-203.36415	-43.354706	344.82086	-183.79709	-53.644794	230.35344	-148.64307	-96.57206	246.27055	-206.95348	-158.28928	51.748333	85.092918	60.662792	46.412117	94.518753	17.922709	26.765661	169.75931	-168.11356	56.63129	-152.72734	24.824934	58.211063	-154.14995	-2.8865049	19.708996	-231.46584	-202.39265	994.58331	-18.223394	-19.167034	1025.5751	185.39767	37.740685	994.63635	121.99982	21.04318	985.58307	-143.41263	-52.916882	1022.2183	-214.15805	55.761616	1534.3241	-19.81184	60.857376	1341.489	-19.562252	-40.944923	1492.7	172.88593	-76.137947	1504.4525	-177.10403	-116.38371	1154.5054	278.88388	-111.8735	1229.5436	273.41629	-29.632467	1229.4015	252.67357	-158.61838	1159.5404	-290.69293	-153.826	1235.6349	-291.9184	-73.111305	1247.0469	-284.87579	-13.607681	1137.5409	276.94867	7.4932699	1014.3982	292.8024	31.591255	919.50891	301.74252	-40.718136	1121.0952	-301.95554	-22.902678	1032.5074	-313.61447	1.4931002	947.40637	-319.00793	39.125813	865.15375	310.6308	77.818504	827.24225	275.26981	16.692583	819.02618	326.88232	15.643511	885.88428	-321.49847	49.414799	843.63593	-303.25961	-7.7739553	838.3006	-341.24991	-109.7822755	88.492904	-163.23935	-88.566892	87.5347135	98.473787	-43.85499501	897.7038572	-98.2996817	-31.91847629	904.175761	91.4352923	-52.1835495	511.417635	-128.6437635	-33.5194205	495.550355	79.5223755
1466	14.65	-27.890217	498.61499	12.297465	-39.518124	492.55646	146.82468	56.856213	705.18164	126.67948	47.222908	594.77271	71.225555	13.198364	592.72784	137.47743	-26.408854	501.67145	-64.23658	-78.112228	521.16705	-193.1039	24.830584	720.6142	-183.98824	30.046804	611.3454	-134.17381	-24.176697	606.03064	-193.31316	-67.676239	96.006691	51.104469	-109.45007	79.060318	145.82748	-6.7639484	359.24701	109.85794	-33.326473	243.74249	82.448135	-46.240307	246.54221	144.24245	-82.232079	103.59106	-123.10367	-137.34277	73.382286	-203.36261	-43.412941	344.81143	-183.7952	-53.670013	230.35474	-148.66267	-96.6605	246.30582	-207.09593	-158.31281	51.728416	85.124046	60.642956	46.408993	94.546951	17.916368	26.761557	169.76917	-168.11047	56.627937	-152.72028	24.830294	58.216717	-154.14717	-2.8996096	19.701206	-231.47437	-202.46017	994.62494	-18.226345	-19.266731	1025.5684	185.42516	37.642895	994.64447	122.01618	20.904194	985.71027	-143.13072	-53.055962	1022.2207	-214.15775	55.662575	1534.3953	-19.770077	60.731468	1341.4928	-19.560472	-41.0895	1492.7028	172.89304	-76.306396	1504.4592	-177.10367	-116.50665	1154.5237	278.93295	-112.01479	1229.5786	273.46454	-29.780027	1229.4182	252.69374	-158.77113	1159.5372	-290.65488	-153.73999	1235.4305	-291.92914	-73.276329	1247.0342	-284.86453	-13.760057	1137.5551	276.9845	7.368371	1014.4392	292.87375	31.500374	919.52673	301.76093	-41.001884	1120.9816	-302.10287	-23.077263	1032.5076	-313.64117	1.3629589	947.41138	-319.01581	38.997768	865.18408	310.69028	77.707504	827.25409	275.31393	16.588732	819.05927	326.9765	15.527647	885.89563	-321.52875	49.320549	843.65192	-303.293	-7.8749003	838.30774	-341.21274	-109.7874245	88.486673	-163.23314	-88.5631545	87.5335045	98.4659745	-43.96618529	897.884285	-98.08901292	-31.99929675	904.2715533	91.4707025	-52.260541	511.41925	-128.67024	-33.7041705	495.585725	79.5610725
1467	14.66	-28.000862	498.64255	12.323529	-39.695004	492.61801	146.92958	56.709515	705.19348	126.72372	47.021549	594.78125	71.260376	13.041952	592.74481	137.51643	-26.48731	501.67633	-64.238335	-78.179764	521.16772	-192.98755	24.697729	720.63599	-184.01126	29.8916	611.31781	-134.22816	-24.278587	606.02655	-193.32782	-67.652222	96.027794	51.134449	-109.44855	79.045029	145.85338	-6.8801064	359.29477	109.90263	-33.416409	244.05252	82.153679	-46.346756	246.56143	144.26682	-82.235733	103.59711	-123.09004	-137.33951	73.38382	-203.37152	-43.457699	344.82904	-183.79581	-53.699955	230.35843	-148.65797	-96.655533	246.2838	-206.97807	-158.31013	51.701866	85.141434	60.633732	46.408909	94.548149	17.914543	26.777796	169.76692	-168.1144	56.625076	-152.71651	24.825581	58.218849	-154.14914	-2.9030387	19.709646	-231.47687	-202.63985	994.70758	-18.512247	-19.363127	1025.5735	185.4366	37.527752	994.63702	122.02705	20.755985	985.71729	-143.10857	-53.186924	1022.2294	-214.12985	55.43541	1534.363	-19.810162	60.579845	1341.4893	-19.571918	-41.232346	1492.7087	172.87741	-76.473892	1504.4688	-177.10083	-116.63356	1154.5425	278.99905	-112.16446	1229.5927	273.47119	-29.917614	1229.4308	252.68695	-158.92293	1159.5536	-290.6348	-154.27129	1235.4053	-291.91821	-73.449928	1247.047	-284.86401	-13.884773	1137.5636	276.99878	7.2273941	1014.4641	292.91309	31.38785	919.56415	301.80222	-41.141933	1121.0048	-302.06906	-23.227823	1032.4889	-313.64911	1.2317616	947.43634	-319.0181	38.890053	865.23608	310.73639	77.592033	827.30084	275.38425	16.491364	819.08826	327.02036	15.402185	885.90784	-321.54355	49.228134	843.67865	-303.31799	-7.9756651	838.31805	-341.22342	-109.7876215	88.490465	-163.23078	-88.550386	87.5364115	98.4939145	-44.15892605	897.9192858	-98.06279868	-32.1683644	904.2962271	91.48938122	-52.333537	511.422025	-128.6129425	-33.847933	495.63028	79.6265545
1468	14.67	-28.131002	498.68585	12.364953	-39.867214	492.64462	146.99721	56.559784	705.21252	126.77118	46.864487	594.80188	71.3013	12.849946	592.75623	137.57127	-26.505674	501.68585	-64.23362	-78.278076	521.17151	-193.04387	24.59071	720.66266	-184.0027	29.799006	611.32605	-134.23306	-24.382803	606.02429	-193.32393	-67.645233	96.040291	51.182335	-109.44651	79.031975	145.87305	-7.016149	359.34671	109.92835	-33.480354	243.91199	82.365799	-46.422512	246.5867	144.27606	-82.237549	103.58743	-123.11015	-137.34169	73.393234	-203.37758	-43.505329	344.82553	-183.78299	-53.717751	230.37402	-148.64723	-96.729332	246.31294	-207.09113	-158.33385	51.696857	85.161285	60.604359	46.402557	94.54882	17.905993	26.771408	169.77156	-168.11484	56.630451	-152.72101	24.836206	58.220909	-154.14153	-2.9015429	19.722544	-231.4772	-202.76541	994.7157	-18.478857	-19.457859	1025.5889	185.47096	37.424503	994.64008	122.0569	20.606115	985.70959	-143.05515	-53.382793	1022.217	-214.11157	55.270897	1534.4001	-19.822596	60.431183	1341.504	-19.583549	-41.370647	1492.7117	172.84039	-76.62709	1504.4823	-177.12065	-116.76105	1154.5585	279.0556	-112.31383	1229.5875	273.48364	-30.064665	1229.4478	252.71947	-159.08972	1159.5308	-290.5878	-154.08522	1235.4227	-291.87808	-73.597107	1247.0743	-284.85321	-14.007946	1137.5848	277.04999	7.0895457	1014.528	293.01392	31.277864	919.5993	301.83398	-41.28582	1121.0267	-302.04727	-23.383171	1032.5013	-313.63281	1.1000836	947.45276	-319.0257	38.770618	865.27435	310.78256	77.491051	827.30139	275.39218	16.376242	819.10541	327.06168	15.285595	885.96454	-321.57278	49.145538	843.71796	-303.34381	-8.0897932	838.33282	-341.16498	-109.7896195	88.490332	-163.243865	-88.5458715	87.536133	98.5276925	-44.30547602	897.9231475	-97.99732549	-32.28151363	904.3078186	91.5391104	-52.391875	511.42868	-128.638745	-33.999108	495.665235	79.6810815
1469	14.68	-28.319637	498.71118	12.400035	-39.914551	492.50934	146.66173	56.438282	705.22638	126.81633	46.683346	594.55945	71.48439	12.710948	592.76196	137.59515	-26.584227	501.6734	-64.226944	-78.346825	521.18549	-193.05951	24.485903	720.68677	-183.9938	29.700655	611.33154	-134.243	-24.475096	606.02228	-193.3116	-67.660683	96.062477	51.184109	-109.47092	79.020424	145.91451	-7.1442719	359.40753	109.95526	-33.572044	244.13382	82.184616	-46.523808	246.61082	144.29388	-82.23629	103.59927	-123.11736	-137.34966	73.379547	-203.36247	-43.539589	344.83539	-183.77846	-53.744488	230.38684	-148.64413	-96.713577	246.29822	-206.96872	-158.34259	51.719891	85.127731	60.59729	46.4091	94.550514	17.894567	26.768312	169.75543	-168.10832	56.637806	-152.72476	24.824598	58.218769	-154.15312	-2.9000323	19.721319	-231.48569	-202.91364	994.73236	-18.447742	-19.591667	1025.6029	185.49864	37.310123	994.64355	122.08882	20.470448	985.70374	-143.02325	-53.5116	1022.2182	-214.08508	55.112099	1534.3986	-19.875572	60.262459	1341.5062	-19.609661	-41.517307	1492.7158	172.82245	-76.791344	1504.4841	-177.12486	-116.86317	1154.5817	279.09421	-112.46008	1229.6067	273.49661	-30.225061	1229.4783	252.77203	-159.23604	1159.5244	-290.55457	-154.65845	1235.4236	-291.8923	-73.765717	1247.078	-284.86176	-14.118672	1137.619	277.07971	6.9456306	1014.5329	293.01517	31.162222	919.63153	301.86392	-41.440697	1121.0325	-302.05322	-23.542358	1032.5555	-313.6073	0.96251291	947.47461	-319.02667	38.657398	865.31287	310.80945	77.393829	827.36523	275.44189	16.257257	819.14429	327.10641	15.154732	885.97241	-321.56885	49.064507	843.74945	-303.33597	-8.1939182	838.35199	-341.10132	-109.792975	88.4894085	-163.239915	-88.5658015	87.5414505	98.5493095	-44.45024396	897.9238702	-97.95624754	-32.41106871	904.3152013	91.58011055	-52.465526	511.429445	-128.643227	-34.117094	495.61026	79.5308825
